<svg width="300" height="149" viewBox="0 0 300 149" fill="none" xmlns="http://www.w3.org/2000/svg">
<path d="M64.5068 68.8699C63.2464 66.9791 61.3906 65.5085 58.9747 64.4932C60.6553 62.9876 61.3556 61.8321 61.3556 60.0464V58.996C61.3556 57.3504 61.4256 56.1949 60.4803 55.2495C59.5349 54.3042 58.4495 54.3392 57.0839 54.3392L49.626 54.3742H47V88.9677V89.3179C47.105 89.3179 47.5952 89.3529 48.3305 89.3529C52.217 89.3529 63.4915 88.5125 66.1875 78.4986V78.4286C66.2925 78.1835 67.413 73.2816 64.5068 68.8699ZM57.0139 58.6809V58.961V60.0464C57.0139 60.5716 55.8585 61.552 53.7576 63.0926V63.1276L52.4972 64.073L51.3417 64.9483V58.7159L56.7338 58.6809H57.0139ZM61.9859 77.3432C60.4102 82.6302 55.1232 84.2759 51.3417 84.7661V70.4105L52.5322 69.5351L52.7422 69.3601C52.7773 69.3601 52.7773 69.3601 52.7773 69.325L53.7927 68.5547L54.8781 67.7144C57.6792 68.3797 59.71 69.5351 60.8654 71.2508C62.6161 73.8418 62.0559 77.0981 61.9859 77.3432ZM73.0559 53.989H68.6442V89.0027H68.7493H73.0559H83.7351V85.0112H73.0559V53.989ZM98.4794 68.5197C96.7988 66.1038 95.2232 63.8279 94.0677 61.3069C93.5775 60.2215 93.2974 59.3461 93.1223 58.4008H98.2343V53.989H84.579H84.544V54.6193V88.9677H88.9557V60.0464C89.2008 60.9918 89.4809 61.9722 90.0061 63.0576L90.0411 63.0926C91.3016 66.0338 93.1223 68.5197 94.838 71.0407C96.8338 73.9819 98.6895 76.6779 99.915 79.8642C101 82.6302 100.965 85.8165 100.965 89.0027H105.377C105.377 85.6064 105.342 81.7549 104.047 78.2885C102.681 74.6471 100.58 71.5659 98.4794 68.5197ZM95.8184 78.9538C95.1181 78.7087 94.3128 78.4636 93.4375 78.4636C91.7918 78.4286 90.4263 78.9188 89.3058 79.9342L91.7218 82.5952C92.177 82.2101 92.5971 82.07 93.4024 82.07C93.7176 82.07 94.2078 82.2451 94.733 82.3852C95.3982 82.6302 96.1685 82.8753 97.1139 82.8753C98.0593 82.8753 99.0397 82.5952 99.88 81.6499L97.289 79.1639C97.1489 79.3039 96.9038 79.339 95.8184 78.9538ZM120.289 57.4204V52.9386L119.834 53.0087C110.591 54.5493 103.483 62.2873 103.483 71.1458C103.483 80.0392 110.591 87.7422 119.834 89.2828L120.289 89.3529V84.8711L119.974 84.8361C112.867 84.0308 108.14 77.8684 108.14 71.1458C108.14 64.4231 112.867 58.2607 119.974 57.4554L120.289 57.4204ZM139.497 76.993C138.062 73.0715 135.611 69.8502 133.125 66.664C134.665 64.6682 136.171 62.6374 137.186 60.3615L137.221 60.3265C138.237 57.9806 138.622 56.2299 138.622 53.989H134.42C134.42 55.6347 134.175 56.8602 133.37 58.6459C132.354 60.9918 130.604 63.0926 128.783 65.3685C127.838 66.594 126.857 67.8195 125.982 69.0799V53.989H121.78V89.0027H125.982V84.3809C125.982 81.4398 125.982 78.4286 126.962 75.8726C127.733 73.8768 128.958 72.0561 130.394 70.1304C132.529 72.9315 134.455 75.5925 135.611 78.6737C136.696 81.6148 136.731 85.6064 136.731 89.0027H140.898C140.898 85.3613 140.898 80.7395 139.497 76.993Z" fill="#F43B43"/>
<path d="M163.399 67.6094C162.734 67.1542 162.174 66.734 161.648 66.3489C159.828 64.9133 158.742 63.3027 158.707 61.7971C158.672 60.8517 159.057 60.0464 159.863 59.3461C161.263 58.1207 162.979 58.1207 163.644 58.6809L166.585 55.5296C164.169 53.2888 159.898 53.4988 156.992 56.1249C155.171 57.7705 154.296 59.6963 154.366 61.9722C154.471 64.7733 156.081 67.5043 158.987 69.7452C159.653 70.2704 160.213 70.6906 160.948 71.1808C163.994 73.2466 165.99 74.8222 165.99 77.5883C165.99 79.409 165.255 81.8249 163.644 83.0504L163.609 83.0854C160.808 85.3263 155.731 84.6961 153.035 84.1358L153 84.2759V88.5125C154.506 88.7927 156.151 89.0027 157.832 89.0027C160.878 89.0027 163.924 88.3725 166.34 86.4467C169.246 84.1008 170.297 80.3894 170.297 77.5883C170.297 72.4062 166.305 69.5701 163.399 67.6094ZM186.708 58.7509C185.482 61.9372 183.661 64.6682 181.631 67.5744L181.315 68.0295L181 67.5744C178.969 64.6682 177.149 61.9372 175.923 58.7509C175.363 57.2453 175.083 55.6697 174.978 53.989H170.951C170.951 54.0941 170.986 54.1291 170.986 54.2341V89.0027H175.363V66.3839C176.168 67.6094 176.904 68.7298 177.709 69.8502C178.129 70.4455 178.549 71.0407 178.934 71.6359C179.81 72.8964 180.615 74.1219 181.315 75.4875C182.016 74.1219 182.821 72.8964 183.696 71.6359C184.081 71.0407 184.502 70.4455 184.922 69.8502C185.727 68.6948 186.462 67.5744 187.268 66.3489V89.0027H191.679V53.989H187.653C187.548 55.6697 187.268 57.2453 186.708 58.7509ZM203.306 53.989C197.703 53.989 193.222 58.4708 193.222 64.073C193.222 69.6052 197.703 74.1219 203.306 74.1219C208.838 74.1219 213.355 69.6052 213.355 64.073C213.355 58.4708 208.838 53.989 203.306 53.989ZM203.306 69.7102C200.119 69.7102 197.633 67.1892 197.633 64.073C197.633 60.8867 200.119 58.4008 203.306 58.4008C206.422 58.4008 208.943 60.8867 208.943 64.073C208.943 67.1892 206.422 69.7102 203.306 69.7102ZM205.126 77.5883C204.461 77.5883 203.691 77.3432 202.815 77.0631C200.82 76.4328 197.809 75.4875 195.358 78.0084L198.579 81.0546C198.964 80.5644 199.559 80.5995 201.485 81.2297C202.57 81.6148 203.796 82 205.091 82H205.231C206.807 82 208.943 81.7199 211.114 79.8292L208.173 76.5729C207.367 77.3082 206.492 77.5883 205.126 77.5883ZM205.126 84.591C204.461 84.591 203.691 84.3459 202.815 84.0658C200.82 83.4005 197.809 82.4902 195.358 85.0112L198.579 88.0574C198.999 87.5672 199.524 87.6372 201.485 88.2675C202.57 88.6176 203.796 89.0027 205.091 89.0027H205.231C206.772 89.0027 208.978 88.7226 211.114 86.8669L208.173 83.5756C207.367 84.3109 206.492 84.626 205.126 84.591ZM231.683 76.993C230.248 73.0715 227.797 69.8502 225.311 66.664C226.851 64.6682 228.357 62.6374 229.372 60.3615L229.407 60.3265C230.423 57.9806 230.808 56.2299 230.808 53.989H226.606C226.606 55.6347 226.361 56.8602 225.556 58.6459C224.54 60.9918 222.79 63.0926 220.969 65.3685C220.024 66.594 219.043 67.8195 218.168 69.0799V53.989H213.966V89.0027H218.168V84.3809C218.168 81.4398 218.168 78.4286 219.148 75.8726C219.919 73.8768 221.144 72.0561 222.58 70.1304C224.715 72.9315 226.641 75.5925 227.797 78.6737C228.882 81.6148 228.917 85.6064 228.917 89.0027H233.084C233.084 85.3613 233.084 80.7395 231.683 76.993ZM241.006 66.9091C241.531 66.9091 241.951 67.0492 242.686 67.3293C242.967 67.3993 243.177 67.4693 243.352 67.5744C244.017 67.7844 244.682 67.8895 245.383 67.8895C247.168 67.8895 249.059 67.1542 250.74 65.6486L247.834 62.3223C247.273 62.7775 245.978 63.8279 244.822 63.4077L244.227 63.1976C243.317 62.8825 242.371 62.4624 241.006 62.4624C240.621 62.4624 240.271 62.4974 239.885 62.5324V58.4008H250.6V53.989H235.474V54.3392V88.9327H235.509V89.0027H250.6V84.591H239.885V66.9791C240.271 66.9441 240.621 66.9091 241.006 66.9091Z" fill="#F43B43"/>
</svg>
