<svg width="300" height="149" viewBox="0 0 300 149" fill="none" xmlns="http://www.w3.org/2000/svg">
<path d="M264.654 96.0431H35.6647C33.0897 96.0431 31 93.9576 31 91.3784V56.6647C31 54.0897 33.0897 52 35.6647 52H264.659C267.234 52 269.323 54.0897 269.323 56.6647V91.3784C269.319 93.9576 267.234 96.0431 264.654 96.0431Z" fill="white"/>
<path d="M104.414 90.3093C103.275 88.8532 102.707 87.0761 102.707 84.9824C102.707 81.9795 103.686 79.2358 105.644 76.7513C107.602 74.2708 110.264 72.2552 113.637 70.7045L115.072 70.0216L114.32 69.2688C113.863 68.767 113.271 68.1417 112.543 67.389C111.815 66.6362 111.165 65.7271 110.597 64.6576C110.025 63.5881 109.745 62.3911 109.745 61.0707C109.745 59.4787 110.26 58.0637 111.284 56.8379C112.016 55.9576 112.933 55.2089 114.032 54.5837C113.962 54.5631 113.892 54.5508 113.818 54.5508H36.5089C34.8799 54.5508 33.5554 55.8712 33.5554 57.5043V90.5315C33.5554 92.1604 34.8758 93.485 36.5089 93.485H108.446C106.804 92.7075 105.459 91.6503 104.414 90.3093Z" fill="#008A7D"/>
<path d="M112.164 74.6686C111.502 75.5818 111.05 76.5608 110.799 77.6056C110.548 78.6546 110.424 79.7241 110.424 80.8141C110.424 83.274 111.177 85.2649 112.679 86.791C114.18 88.3171 116.163 89.0781 118.623 89.0781C120.124 89.0781 121.58 88.8149 122.995 88.2925C124.406 87.77 125.751 86.8239 127.026 85.4583L127.574 84.9112L126.619 83.6154C125.254 81.8384 123.785 80.0655 122.214 78.2884C120.642 76.5114 118.968 74.6686 117.195 72.7558L116.377 71.7974L115.081 72.4802C113.793 73.0314 112.823 73.7595 112.164 74.6686Z" fill="#008A7D"/>
<path d="M133.476 91.8145C132.452 90.8149 131.346 89.5603 130.165 88.0589L129.071 86.6233L128.729 87.0346C127.364 88.5813 125.953 89.9511 124.492 91.1317C123.308 92.0942 122.082 92.8717 120.807 93.4887H135.702C134.908 93.0403 134.163 92.4891 133.476 91.8145Z" fill="#008A7D"/>
<path d="M124.081 64.2202C124.492 63.0355 124.694 61.8549 124.694 60.6702C124.739 59.2141 124.455 57.9142 123.842 56.7789C123.225 55.6394 122.238 55.0718 120.872 55.0718C119.869 55.0718 118.96 55.4379 118.141 56.166C117.322 56.8941 116.911 57.8278 116.911 58.9673C116.911 60.0614 117.035 61.0158 117.285 61.8344C117.536 62.6529 117.911 63.3851 118.413 64.0186C118.914 64.6562 119.482 65.339 120.12 66.0671L121.415 67.3629L122.168 66.8158C123.036 66.2687 123.674 65.4049 124.081 64.2202Z" fill="#E63323"/>
<path d="M263.812 54.5591H127.577C128.552 55.1967 129.346 55.9453 129.959 56.8092C130.777 57.9692 131.189 59.2361 131.189 60.6018C131.189 62.5598 130.539 64.1312 129.243 65.3159C127.943 66.5005 126.179 67.5001 123.949 68.3228L122.649 68.8658L123.809 70.0957C125.22 71.5972 126.61 73.0328 127.976 74.3984C129.342 75.7641 130.638 77.1997 131.867 78.7012L132.962 79.9969L133.986 78.9726C134.985 78.0183 138.663 74.6041 139.461 73.4894C140.255 72.3746 140.917 71.338 141.444 70.3837C141.966 69.4252 142.25 67.8539 142.25 67.4425C142.25 66.8954 142.057 66.4306 141.67 66.0439C141.283 65.6573 140.814 65.394 140.271 65.2583C140 65.1225 139.737 64.9744 139.486 64.814C139.235 64.6536 139.111 64.4397 139.111 64.1641C139.111 63.7116 139.317 63.4483 139.724 63.3784C140.136 63.3085 140.543 63.2756 140.954 63.2756C141.366 63.2756 154.323 63.2797 155.006 63.2797C155.232 63.2797 155.45 63.3702 155.656 63.5512C155.861 63.7322 155.964 63.9173 155.964 64.0983C155.964 64.4191 155.759 64.7482 155.351 65.0896C154.94 65.431 154.463 65.6491 153.916 65.7395C152.595 65.9205 151.456 66.3196 150.502 66.9366C149.543 67.5495 148.725 68.1788 148.042 68.8164C147.63 69.1825 147.05 69.7379 146.302 70.4906C145.549 71.2434 144.718 72.062 143.809 72.9505C142.896 73.839 141.999 74.7152 141.11 75.579C140.222 76.4428 136.635 79.5938 135.911 80.2766C135.183 80.9595 134.636 81.4613 134.274 81.778L135.504 83.3494C136.96 85.2169 138.363 86.7636 139.704 87.9935C141.045 89.2235 142.472 89.8364 143.973 89.8364C144.792 89.8364 145.668 89.7459 146.602 89.5649C147.536 89.3839 148.432 89.1083 149.3 88.7463C149.527 88.6558 149.765 88.5653 150.016 88.4748C150.267 88.3843 150.506 88.3391 150.732 88.3391C151.094 88.3391 151.357 88.3967 151.518 88.5118C151.678 88.627 151.756 88.8862 151.756 89.2975C151.756 89.7993 151.279 90.5028 150.321 91.416C149.502 92.1975 148.445 92.8845 147.174 93.4974H263.82C265.449 93.4974 266.773 92.1769 266.773 90.5439V57.5085C266.765 55.8795 265.441 54.5591 263.812 54.5591Z" fill="#E63323"/>
<path d="M173.209 86.3769C172.978 86.3769 172.805 86.2617 172.69 86.0314C172.575 85.7311 172.431 85.3403 172.258 84.8549C172.086 84.3695 171.929 83.9541 171.789 83.6085L165.311 66.9078C165.08 66.2825 164.768 65.7601 164.377 65.3323C163.982 64.9045 163.476 64.6124 162.851 64.4479C162.526 64.3327 162.275 64.2216 162.09 64.1188C161.905 64.016 161.814 63.872 161.814 63.6869C161.814 63.5265 161.901 63.4154 162.073 63.3578C162.246 63.3002 162.46 63.2714 162.715 63.2714C163.13 63.2714 163.587 63.2838 164.085 63.3043C164.583 63.329 165.105 63.3455 165.66 63.3578C166.216 63.3702 166.746 63.3743 167.252 63.3743C167.713 63.3743 168.207 63.3619 168.725 63.3414C169.243 63.3167 169.745 63.3002 170.23 63.2879C170.716 63.2755 171.119 63.2714 171.444 63.2714C171.699 63.2714 171.921 63.3043 172.118 63.3743C172.316 63.4442 172.415 63.547 172.415 63.6869C172.415 63.872 172.316 64.0283 172.118 64.1558C171.921 64.2834 171.662 64.3697 171.337 64.415C170.666 64.5096 170.136 64.6577 169.745 64.8675C169.354 65.0773 169.157 65.3775 169.157 65.7683C169.157 66.0686 169.198 66.3442 169.276 66.5992C169.358 66.8543 169.42 67.06 169.465 67.2245L174.282 80.1491C174.327 80.2643 174.385 80.3342 174.455 80.3589C174.525 80.3836 174.595 80.3013 174.665 80.1162L179.136 68.3022C179.597 67.1011 179.65 66.1838 179.292 65.5462C178.935 64.9127 178.338 64.5466 177.507 64.4561C177.182 64.4109 176.919 64.3245 176.709 64.197C176.503 64.0695 176.396 63.9131 176.396 63.728C176.396 63.5882 176.495 63.4853 176.693 63.4154C176.89 63.3455 177.125 63.3126 177.404 63.3126C177.775 63.3126 178.132 63.3167 178.478 63.329C178.823 63.3414 179.181 63.3537 179.552 63.3619C179.922 63.3743 180.337 63.3784 180.798 63.3784C181.468 63.3784 182.155 63.3537 182.859 63.3085C183.562 63.2632 184.171 63.2385 184.677 63.2385C184.977 63.2385 185.224 63.2673 185.421 63.3249C185.619 63.3825 185.718 63.5059 185.718 63.6869C185.718 63.8473 185.619 63.9831 185.421 64.0859C185.224 64.1887 184.965 64.2875 184.64 64.3821C183.83 64.5672 183.155 64.9415 182.612 65.5092C182.069 66.0768 181.645 66.7391 181.349 67.5001L175.286 82.1894C175.125 82.5596 174.953 82.975 174.768 83.4358C174.582 83.8965 174.406 84.3531 174.229 84.8056C174.056 85.258 173.875 85.6653 173.69 86.0355C173.645 86.1507 173.579 86.237 173.501 86.2946C173.422 86.344 173.324 86.3769 173.209 86.3769Z" fill="white"/>
<path d="M194.249 86.585C194.064 86.585 193.974 86.4822 193.974 86.2724C193.974 86.0174 194.003 85.6677 194.06 85.2153C194.118 84.7628 194.147 84.4008 194.147 84.1252C194.147 84.0552 194.147 83.9977 194.147 83.9524C194.147 83.9072 194.147 83.8701 194.147 83.8496C193.336 84.6805 192.468 85.3099 191.53 85.7377C190.597 86.1655 189.585 86.3794 188.499 86.3794C187.783 86.3794 187.125 86.2066 186.524 85.8611C185.924 85.5155 185.455 85.0137 185.122 84.3555C184.788 83.6974 184.62 82.9158 184.62 82.015V75.1495C184.62 74.6436 184.509 74.2322 184.291 73.9196C184.073 73.607 183.694 73.3725 183.164 73.208C183.048 73.1627 182.937 73.0969 182.835 73.0188C182.732 72.9365 182.678 72.8049 182.678 72.6197C182.678 72.4141 182.732 72.266 182.835 72.1878C182.937 72.1056 183.061 72.0562 183.197 72.0315C184.052 71.9863 184.756 71.9122 185.311 71.8053C185.866 71.7024 186.487 71.5585 187.183 71.3734C187.273 71.3487 187.355 71.3322 187.425 71.3199C187.495 71.3075 187.565 71.3034 187.635 71.3034C187.911 71.3034 188.038 71.4639 188.018 71.7888C187.948 72.3195 187.89 72.7637 187.845 73.1216C187.8 73.4795 187.775 73.9237 187.775 74.4544V81.1758C187.775 81.7311 187.894 82.233 188.137 82.6813C188.38 83.1338 188.709 83.4958 189.124 83.7714C189.54 84.047 189.967 84.1992 190.407 84.2198C190.938 84.2198 191.411 84.1787 191.827 84.1005C192.242 84.0182 192.645 83.8167 193.04 83.4958C193.246 83.3354 193.509 83.0557 193.818 82.6649C194.13 82.2741 194.287 81.7311 194.287 81.0359V74.9768C194.287 74.5161 194.167 74.1623 193.925 73.9196C193.682 73.6769 193.394 73.5 193.057 73.3807C192.719 73.2656 192.415 73.1956 192.139 73.171C191.909 73.171 191.724 73.1257 191.584 73.0311C191.444 72.9406 191.374 72.7761 191.374 72.5457C191.374 72.3153 191.448 72.159 191.6 72.0768C191.748 71.9945 191.929 71.9575 192.139 71.9575C193.015 71.9122 193.727 71.867 194.27 71.8176C194.813 71.7724 195.286 71.7148 195.689 71.6448C196.092 71.5749 196.516 71.4844 196.956 71.3692C197.001 71.3446 197.067 71.3281 197.145 71.3158C197.228 71.3034 197.289 71.2993 197.335 71.2993C197.635 71.2993 197.787 71.4268 197.787 71.6819C197.787 71.7271 197.783 71.7847 197.771 71.8546C197.758 71.9246 197.742 71.9945 197.717 72.0644C197.692 72.1549 197.664 72.3606 197.631 72.6691C197.598 72.9817 197.561 73.3108 197.528 73.6563C197.495 74.0019 197.474 74.2816 197.474 74.4873V82.4921C197.474 83.068 197.536 83.4794 197.664 83.7221C197.791 83.9648 197.935 84.084 198.096 84.084C198.256 84.084 198.495 84.0717 198.807 84.0511C199.12 84.0265 199.346 84.0182 199.482 84.0182C199.622 84.0182 199.749 84.0511 199.864 84.1211C199.98 84.191 200.037 84.3309 200.037 84.5365C200.037 84.7216 199.992 84.8533 199.897 84.9355C199.803 85.0178 199.679 85.0672 199.515 85.0918C198.544 85.207 197.688 85.3921 196.952 85.6472C196.212 85.9022 195.566 86.1326 195.01 86.3382C194.92 86.3835 194.797 86.437 194.648 86.4945C194.496 86.5562 194.365 86.585 194.249 86.585Z" fill="white"/>
<path d="M208.33 86.4136C207.083 86.4136 205.981 86.0969 205.022 85.4593C204.064 84.8258 203.307 83.9332 202.752 82.7896C202.196 81.6461 201.921 80.3257 201.921 78.8242C201.921 77.4627 202.237 76.2122 202.875 75.081C203.509 73.9497 204.36 73.0448 205.421 72.3619C206.483 71.6791 207.651 71.3418 208.922 71.3418C209.868 71.3418 210.719 71.531 211.468 71.9136C212.217 72.2961 212.809 72.8268 213.237 73.5055C213.665 74.1883 213.879 74.9658 213.879 75.8461C213.879 76.6071 213.521 76.9896 212.805 76.9896H205.631C205.306 76.9896 205.076 77.0801 204.94 77.2652C204.8 77.4503 204.734 77.7835 204.734 78.2689C204.734 79.2849 204.965 80.2146 205.425 81.0579C205.886 81.9011 206.499 82.5757 207.26 83.0858C208.021 83.5959 208.864 83.8468 209.79 83.8468C210.481 83.8468 211.11 83.7152 211.678 83.4478C212.246 83.1804 212.768 82.8061 213.253 82.3207C213.323 82.2302 213.385 82.1603 213.443 82.115C213.5 82.0698 213.562 82.0451 213.632 82.0451C213.842 82.0451 213.944 82.1726 213.944 82.4277C213.944 82.7979 213.784 83.238 213.459 83.744C213.134 84.2294 212.727 84.6736 212.229 85.0767C211.731 85.4799 211.155 85.8048 210.497 86.0475C209.839 86.2902 209.115 86.4136 208.33 86.4136ZM205.664 75.809H208.436C209.037 75.809 209.51 75.7967 209.856 75.7761C210.201 75.7556 210.526 75.7062 210.826 75.6363C210.942 75.591 211.024 75.4923 211.069 75.3401C211.114 75.192 211.139 74.9987 211.139 74.7683C211.139 74.1225 210.872 73.5713 210.341 73.1229C209.81 72.6705 209.173 72.4483 208.436 72.4483C207.926 72.4483 207.425 72.6005 206.931 72.9008C206.433 73.2011 206.026 73.5754 205.701 74.0279C205.376 74.4804 205.228 74.937 205.249 75.3977C205.249 75.6733 205.384 75.809 205.664 75.809Z" fill="white"/>
<path d="M216.865 85.9957C216.704 85.9957 216.548 85.971 216.396 85.9258C216.244 85.8805 216.17 85.7777 216.17 85.6132C216.17 85.428 216.252 85.2964 216.412 85.2141C216.573 85.1319 216.758 85.0455 216.968 84.955C217.313 84.8398 217.638 84.7123 217.939 84.5724C218.239 84.4326 218.391 84.12 218.391 83.6387V66.4854C218.391 65.8149 218.28 65.2555 218.062 64.8071C217.844 64.3546 217.445 64.0749 216.865 63.9597C216.68 63.9145 216.589 63.75 216.589 63.4743C216.589 63.2193 216.672 63.0712 216.832 63.0219C217.433 62.9067 218 62.7545 218.531 62.5694C219.062 62.3843 219.559 62.1992 220.02 62.0141C220.481 61.829 220.896 61.6685 221.266 61.5287C221.406 61.4834 221.509 61.4587 221.579 61.4587C221.649 61.4587 221.698 61.4916 221.735 61.5616C221.768 61.6315 221.789 61.7014 221.789 61.7714C221.789 61.9565 221.756 62.3473 221.686 62.9478C221.616 63.5484 221.583 64.4492 221.583 65.6504V83.6346C221.583 84.0953 221.731 84.4038 222.036 84.5519C222.336 84.7041 222.661 84.8357 223.006 84.9509C223.216 85.0208 223.397 85.1031 223.562 85.1936C223.722 85.2841 223.804 85.4239 223.804 85.609C223.804 85.7489 223.73 85.8394 223.578 85.8846C223.426 85.9299 223.274 85.9546 223.109 85.9546C222.669 85.9546 222.291 85.9422 221.966 85.9217C221.641 85.897 221.328 85.8764 221.032 85.8517C220.732 85.8312 220.374 85.8188 219.958 85.8188C219.563 85.8188 219.218 85.8312 218.918 85.8517C218.617 85.8764 218.317 85.9052 218.017 85.9381C217.708 85.9793 217.326 85.9957 216.865 85.9957Z" fill="white"/>
<path d="M230.621 86.3772C229.349 86.3772 228.375 86.0193 227.692 85.3035C227.009 84.5878 226.672 83.5347 226.672 82.1526V74.1107C226.672 73.9256 226.598 73.794 226.445 73.7117C226.293 73.6295 226.001 73.5883 225.561 73.5883H225.285C225.145 73.5883 225.03 73.4896 224.94 73.2922C224.845 73.0947 224.8 72.9055 224.8 72.7204C224.8 72.6751 224.829 72.6134 224.886 72.5312C224.944 72.4489 224.997 72.3995 225.043 72.3748C225.528 72.0746 226.005 71.7455 226.482 71.3876C226.955 71.0297 227.396 70.6636 227.799 70.2975C228.202 69.9273 228.543 69.6065 228.819 69.3268C228.959 69.2116 229.074 69.1087 229.164 69.0141C229.255 68.9236 229.37 68.8743 229.51 68.8743C229.65 68.8743 229.769 68.9072 229.876 68.9771C229.979 69.047 230.02 69.1869 229.995 69.3926L229.786 71.0914C229.761 71.367 229.827 71.5521 229.975 71.6468C230.123 71.7373 230.341 71.7866 230.616 71.7866H234.635C234.705 71.7866 234.775 71.8689 234.845 72.0293C234.915 72.1897 234.948 72.3543 234.948 72.5147C234.948 72.7697 234.915 73.0124 234.845 73.2428C234.775 73.4731 234.693 73.5883 234.602 73.5883H231.242C230.666 73.5883 230.287 73.6459 230.115 73.7611C229.942 73.8763 229.855 74.1436 229.855 74.5591V81.2805C229.855 82.2513 230.053 82.9959 230.444 83.5142C230.834 84.0325 231.39 84.2957 232.106 84.2957C232.776 84.2957 233.282 84.2381 233.632 84.123C233.977 84.0078 234.29 83.8679 234.565 83.7075C234.635 83.6623 234.693 83.6376 234.738 83.6376C234.853 83.6376 234.927 83.6952 234.964 83.8103C234.997 83.9255 235.018 84.053 235.018 84.1929C235.018 84.3328 234.812 84.5755 234.393 84.921C233.977 85.2665 233.434 85.5956 232.764 85.9082C232.101 86.2208 231.386 86.3772 230.621 86.3772Z" fill="white"/>
<path d="M238.972 86.3807C238.487 86.3807 238.014 86.2244 237.553 85.9118C237.092 85.5992 236.71 85.2084 236.41 84.7353C236.109 84.2623 235.957 83.7933 235.957 83.3326C235.957 82.5716 236.171 81.9587 236.599 81.4939C237.027 81.0332 237.689 80.6177 238.59 80.2475L241.951 78.8283C242.411 78.6432 242.691 78.4746 242.781 78.3265C242.872 78.1784 242.93 77.8699 242.954 77.4092L243.024 75.2949C243.049 74.6696 242.897 74.1513 242.572 73.7358C242.247 73.3204 241.774 73.1106 241.152 73.1106C240.828 73.1106 240.498 73.1764 240.165 73.2998C239.832 73.4273 239.561 73.5713 239.351 73.7317C239.236 73.8263 239.162 73.9497 239.125 74.1143C239.092 74.2747 239.071 74.4475 239.071 74.6326C239.071 74.7478 239.075 74.8794 239.088 75.0316C239.1 75.1838 239.104 75.3031 239.104 75.3936C239.104 75.5334 238.948 75.698 238.635 75.8954C238.322 76.0929 237.965 76.2698 237.561 76.4343C237.158 76.5947 236.817 76.677 236.541 76.677C236.401 76.677 236.294 76.6359 236.212 76.5577C236.13 76.4754 236.093 76.3685 236.093 76.2286C236.093 75.8584 236.212 75.4717 236.455 75.0686C236.698 74.6655 237.06 74.2541 237.545 73.8387C238.1 73.3533 238.705 72.9214 239.363 72.5388C240.021 72.1563 240.667 71.8642 241.305 71.6544C241.938 71.4446 242.502 71.3418 242.987 71.3418C243.958 71.3418 244.748 71.6709 245.361 72.329C245.973 72.9872 246.257 73.8346 246.208 74.8753L246.035 82.7074C246.011 83.2174 246.117 83.6329 246.348 83.9538C246.578 84.2787 246.866 84.4391 247.216 84.4391C247.746 84.4391 248.162 84.2993 248.462 84.0237C248.553 83.9332 248.635 83.8838 248.705 83.8838C248.82 83.8838 248.919 83.9167 249.001 83.9867C249.083 84.0566 249.124 84.1471 249.124 84.2623C249.124 84.5379 248.964 84.8299 248.639 85.1302C248.244 85.5251 247.825 85.8295 247.376 86.0475C246.924 86.2655 246.492 86.3766 246.076 86.3766C244.92 86.3766 243.999 85.7514 243.304 84.505H243.201C242.44 85.1508 241.724 85.6238 241.054 85.9241C240.383 86.2285 239.688 86.3807 238.972 86.3807ZM240.774 84.5091C241.165 84.5091 241.494 84.4474 241.761 84.3199C242.029 84.1923 242.263 84.0155 242.473 83.781C242.588 83.6658 242.674 83.5218 242.732 83.3491C242.79 83.1763 242.831 82.9048 242.855 82.5346L242.925 80.5601C242.95 80.3298 242.938 80.1611 242.892 80.0583C242.847 79.9554 242.753 79.902 242.617 79.902C242.572 79.902 242.502 79.9143 242.411 79.9349C242.321 79.9596 242.193 80.0048 242.029 80.0747C240.988 80.4696 240.26 80.8769 239.844 81.3047C239.429 81.7325 239.219 82.2014 239.219 82.7074C239.219 83.3326 239.388 83.7892 239.721 84.0772C240.054 84.3651 240.404 84.5091 240.774 84.5091Z" fill="white"/>
<path d="M253.838 86.3794C253.097 86.3794 252.398 86.2766 251.74 86.0668C251.082 85.857 250.51 85.5609 250.024 85.166C249.864 84.8657 249.749 84.3926 249.679 83.7468C249.609 83.101 249.576 82.5128 249.576 81.978C249.576 81.7477 249.749 81.6325 250.094 81.6325C250.234 81.6325 250.354 81.6613 250.456 81.7189C250.559 81.7764 250.625 81.8505 250.646 81.9451C250.991 83.0311 251.476 83.8496 252.102 84.405C252.727 84.9603 253.406 85.2359 254.146 85.2359C254.792 85.2359 255.323 85.022 255.738 84.5942C256.154 84.1664 256.363 83.6522 256.363 83.0516C256.363 82.4264 256.145 81.904 255.705 81.4762C255.265 81.0484 254.595 80.5589 253.694 80.0035C252.953 79.5634 252.32 79.1315 251.789 78.7037C251.258 78.2759 250.855 77.8028 250.576 77.2845C250.3 76.7662 250.16 76.1698 250.16 75.4993C250.16 74.693 250.362 73.9732 250.765 73.352C251.168 72.7268 251.74 72.2332 252.48 71.8629C253.221 71.4927 254.109 71.3076 255.15 71.3076C255.89 71.3076 256.52 71.3817 257.038 71.5339C257.556 71.6861 257.935 71.8383 258.165 72.0028C258.35 72.2578 258.506 72.6733 258.634 73.2492C258.761 73.8251 258.823 74.4051 258.823 74.981C258.823 75.1661 258.671 75.2566 258.371 75.2566C258.231 75.2566 258.087 75.2237 257.939 75.1537C257.787 75.0838 257.692 74.9933 257.643 74.8781C257.342 74.0678 256.968 73.459 256.516 73.0394C256.067 72.6239 255.516 72.4141 254.87 72.4141C254.315 72.4141 253.817 72.5828 253.381 72.916C252.941 73.2492 252.723 73.7305 252.723 74.3557C252.723 74.8864 252.912 75.3553 253.295 75.7584C253.677 76.1615 254.282 76.5976 255.113 77.0583C256.499 77.8193 257.519 78.5432 258.177 79.222C258.836 79.9048 259.165 80.8098 259.165 81.941C259.165 83.282 258.683 84.3556 257.725 85.1618C256.775 85.9722 255.479 86.3794 253.838 86.3794Z" fill="white"/>
<path d="M42.1889 86.0269C41.9339 86.0269 41.72 85.9981 41.5472 85.9406C41.3744 85.883 41.288 85.7719 41.288 85.6115C41.288 85.3112 41.6212 85.0891 42.2917 84.9533C43.1679 84.7929 43.8178 84.5379 44.2333 84.1923C44.6488 83.8468 44.8585 83.2791 44.8585 82.4935V66.8334C44.8585 66.0477 44.6981 65.4883 44.3732 65.151C44.0482 64.8178 43.4476 64.5586 42.5714 64.3735C41.9009 64.2337 41.5678 64.0033 41.5678 63.6784C41.5678 63.5179 41.65 63.4027 41.8105 63.3328C41.9709 63.2629 42.1807 63.23 42.4357 63.23C43.0363 63.23 43.5751 63.2423 44.0482 63.2629C44.5212 63.2876 44.9778 63.3081 45.418 63.3328C45.8581 63.3575 46.3312 63.3657 46.8371 63.3657C47.3225 63.3657 47.7791 63.3616 48.2069 63.3493C48.6347 63.3369 49.0749 63.3205 49.5232 63.2958C49.9757 63.2752 50.4858 63.2629 51.0658 63.2629C51.3414 63.2629 51.5635 63.2917 51.724 63.3493C51.8844 63.4069 51.9667 63.5179 51.9667 63.6784C51.9667 63.8635 51.8803 64.0074 51.7075 64.1103C51.5347 64.2131 51.2879 64.2995 50.963 64.3694C50.0621 64.5751 49.4327 64.8425 49.0749 65.1674C48.717 65.4924 48.536 66.0477 48.536 66.8293V82.4893C48.536 83.2503 48.754 83.8057 49.1942 84.1512C49.6343 84.4967 50.2801 84.7641 51.1357 84.9492C51.4813 85.0191 51.7363 85.1014 51.8967 85.1919C52.0572 85.2865 52.1394 85.4223 52.1394 85.6074C52.1394 85.7472 52.0654 85.8501 51.9132 85.92C51.761 85.9899 51.5512 86.0228 51.2715 86.0228C50.6956 86.0228 50.1608 86.0064 49.6796 85.9694C49.1942 85.9364 48.7252 85.9035 48.2769 85.883C47.8244 85.8624 47.3472 85.8501 46.8371 85.8501C46.2818 85.8501 45.7676 85.8624 45.2946 85.883C44.8215 85.9035 44.332 85.9364 43.8219 85.9694C43.3078 86.0105 42.7648 86.0269 42.1889 86.0269Z" fill="white"/>
<path d="M65.0881 86.5507C65.0429 86.5507 64.9606 86.4931 64.8454 86.3779C64.7302 86.2628 64.6727 86.1805 64.6727 86.1352C64.6973 85.8596 64.7302 85.5223 64.7755 85.1315C64.8207 84.7408 64.8454 84.4035 64.8454 84.1279V83.9222C64.4505 84.5227 63.8705 85.0822 63.0972 85.6005C62.3239 86.1188 61.3942 86.382 60.3082 86.382C58.9919 86.382 57.8484 86.0406 56.8776 85.3619C55.9068 84.6791 55.1499 83.7988 54.607 82.7128C54.064 81.6269 53.7925 80.471 53.7925 79.2493C53.7925 77.8383 54.1174 76.5344 54.7633 75.3332C55.4091 74.1321 56.3346 73.1695 57.5358 72.4414C58.7369 71.7133 60.1437 71.3514 61.7644 71.3514C62.1799 71.3514 62.6118 71.3925 63.0643 71.4706C63.5168 71.5529 63.8664 71.6393 64.1215 71.7298C64.3765 71.7997 64.5246 71.8326 64.5739 71.8326C64.7344 71.8326 64.8166 71.5899 64.8166 71.1045V66.4974C64.8166 65.5966 64.6768 64.9713 64.4012 64.6258C64.1256 64.2803 63.7183 64.0623 63.1877 63.9676C62.9573 63.9224 62.8422 63.7579 62.8422 63.4822C62.8422 63.2519 62.945 63.0997 63.1548 63.0298C64.1256 62.7994 64.9565 62.5567 65.6476 62.3017C66.3386 62.0466 66.8939 61.841 67.3094 61.6764C67.4698 61.5859 67.5973 61.5325 67.692 61.5201C67.7825 61.5078 67.8524 61.5037 67.8976 61.5037C68.0827 61.5037 68.1732 61.5983 68.1732 61.7793C68.1732 61.8492 68.1609 62.0343 68.1403 62.3346C68.1157 62.6349 68.0827 63.0627 68.0375 63.618C67.9922 64.1733 67.9676 64.852 67.9676 65.6624L67.8976 81.9765C67.8976 82.7622 67.9552 83.3298 68.0704 83.6754C68.1856 84.0209 68.383 84.1978 68.6586 84.1978C68.7738 84.1978 68.9466 84.1854 69.1769 84.1649C69.4073 84.1402 69.7199 84.1196 70.1107 84.0949C70.4809 84.0744 70.666 84.1854 70.666 84.4405C70.666 84.6009 70.6084 84.7572 70.4932 84.9094C70.3781 85.0616 70.2629 85.1357 70.1477 85.1357C69.432 85.2303 68.708 85.366 67.9799 85.5511C67.2518 85.7362 66.4826 85.9995 65.6764 86.3491C65.4912 86.4396 65.3637 86.5013 65.2938 86.5219C65.228 86.5384 65.1581 86.5507 65.0881 86.5507ZM61.7274 84.3664C62.2375 84.3664 62.7722 84.2348 63.3399 83.9674C63.9076 83.7 64.3847 83.3504 64.7796 82.9103V76.1559C64.7796 75.6253 64.611 75.0864 64.2778 74.5434C63.9446 74.0004 63.488 73.5603 62.908 73.2271C62.3321 72.8939 61.6739 72.7253 60.9335 72.7253C60.4029 72.7253 59.8352 72.9063 59.2346 73.2641C58.6341 73.622 58.1281 74.2185 57.7085 75.0494C57.2931 75.8803 57.0833 77.0033 57.0833 78.4101C57.0833 79.5866 57.2437 80.5656 57.5687 81.3389C57.8936 82.1122 58.3009 82.721 58.7986 83.1571C59.2963 83.5972 59.8105 83.9057 60.3412 84.0908C60.8759 84.2759 61.3366 84.3664 61.7274 84.3664Z" fill="white"/>
<path d="M75.0331 86.3771C74.5477 86.3771 74.0746 86.2207 73.6139 85.9081C73.1532 85.5955 72.7707 85.2047 72.4704 84.7317C72.1701 84.2586 72.0179 83.7897 72.0179 83.329C72.0179 82.568 72.2318 81.9551 72.6596 81.4902C73.0874 81.0295 73.7497 80.6141 74.6505 80.2438L78.0113 78.8247C78.472 78.6396 78.7517 78.4709 78.8422 78.3228C78.9327 78.1748 78.9903 77.8662 79.0149 77.4055L79.0849 75.2912C79.1054 74.6659 78.9574 74.1476 78.6324 73.7322C78.3074 73.3167 77.8344 73.111 77.2132 73.111C76.8883 73.111 76.5592 73.1769 76.226 73.3003C75.8887 73.4278 75.6213 73.5718 75.4115 73.7322C75.2963 73.8268 75.2223 73.9502 75.1853 74.1147C75.1524 74.2752 75.1318 74.452 75.1318 74.633C75.1318 74.7482 75.1359 74.884 75.1483 75.032C75.1606 75.1842 75.1647 75.3035 75.1647 75.394C75.1647 75.5339 75.0084 75.6984 74.6958 75.8959C74.3832 76.0933 74.0253 76.2702 73.6222 76.4306C73.219 76.5952 72.8776 76.6733 72.602 76.6733C72.4622 76.6733 72.3552 76.6322 72.2729 76.554C72.1907 76.4718 72.1536 76.3648 72.1536 76.225C72.1536 75.8547 72.2729 75.4681 72.5197 75.065C72.7624 74.6618 73.1244 74.2505 73.6098 73.835C74.1651 73.3496 74.7698 72.9177 75.428 72.5352C76.0861 72.1526 76.732 71.8605 77.3695 71.6508C78.003 71.441 78.5666 71.3381 79.052 71.3381C80.0227 71.3381 80.8125 71.6672 81.4254 72.3254C82.0384 72.9835 82.3222 73.8309 82.2728 74.8716L82.1001 82.7037C82.0754 83.2138 82.1823 83.6292 82.4127 83.9501C82.643 84.2751 82.931 84.4355 83.2806 84.4355C83.8113 84.4355 84.2267 84.2956 84.527 84.02C84.6175 83.9295 84.6998 83.8802 84.7697 83.8802C84.8849 83.8802 84.9836 83.9131 85.0659 83.983C85.1482 84.0529 85.1852 84.1475 85.1852 84.2586C85.1852 84.5342 85.0248 84.8263 84.6998 85.1266C84.3049 85.5214 83.8853 85.8258 83.4328 86.0439C82.9845 86.2619 82.5484 86.3729 82.133 86.3729C80.9771 86.3729 80.0557 85.7477 79.3605 84.5013H79.2576C78.4966 85.1471 77.7809 85.6202 77.1104 85.9205C76.4399 86.2249 75.7488 86.3771 75.0331 86.3771ZM76.8348 84.5054C77.2256 84.5054 77.5547 84.4396 77.822 84.3162C78.0894 84.1887 78.3239 84.0118 78.5337 83.7773C78.6488 83.6621 78.7352 83.5182 78.7928 83.3454C78.8504 83.1726 78.8915 82.9012 78.9121 82.5309L78.982 80.5565C79.0026 80.3261 78.9944 80.1575 78.9491 80.0546C78.9039 79.9518 78.8093 79.8983 78.6735 79.8983C78.6283 79.8983 78.5583 79.9106 78.4679 79.9312C78.3732 79.9559 78.2498 80.0011 78.0853 80.0711C77.0446 80.4619 76.3165 80.8732 75.901 81.301C75.4856 81.7288 75.2758 82.1977 75.2758 82.7037C75.2758 83.329 75.4444 83.7814 75.7776 84.0735C76.1108 84.3614 76.4646 84.5054 76.8348 84.5054Z" fill="white"/>
<path d="M90.4197 86.3785C89.6793 86.3785 88.98 86.2756 88.3218 86.0658C87.6637 85.8602 87.0919 85.5599 86.6065 85.165C86.4461 84.8647 86.3309 84.3916 86.261 83.7458C86.191 83.1 86.1581 82.5118 86.1581 81.977C86.1581 81.7467 86.3309 81.6315 86.6764 81.6315C86.8163 81.6315 86.9356 81.6603 87.0425 81.7179C87.1454 81.7755 87.2112 81.8495 87.2317 81.9441C87.5773 83.0301 88.0627 83.8487 88.6879 84.404C89.3132 84.9593 89.9919 85.2349 90.7323 85.2349C91.3781 85.2349 91.9088 85.021 92.3284 84.5932C92.7438 84.1654 92.9536 83.6512 92.9536 83.0507C92.9536 82.4254 92.7356 81.903 92.2955 81.4752C91.8553 81.0474 91.1848 80.5579 90.284 80.0026C89.5435 79.5624 88.9101 79.1305 88.3794 78.7027C87.8488 78.2749 87.4456 77.8018 87.1659 77.2835C86.8903 76.7652 86.7505 76.1688 86.7505 75.4983C86.7505 74.692 86.952 73.9763 87.3552 73.351C87.7583 72.7258 88.33 72.2322 89.0705 71.862C89.8109 71.4917 90.6994 71.3066 91.7401 71.3066C92.4806 71.3066 93.1099 71.3807 93.6282 71.5329C94.1465 71.6851 94.525 71.8373 94.7553 72.0018C94.9404 72.2569 95.0967 72.6723 95.2243 73.2482C95.3518 73.8241 95.4135 74.4041 95.4135 74.98C95.4135 75.1651 95.2613 75.2556 94.9651 75.2556C94.8252 75.2556 94.6813 75.2227 94.5332 75.1528C94.381 75.0828 94.2823 74.9923 94.237 74.8771C93.9367 74.0668 93.5624 73.4539 93.1099 73.0384C92.6574 72.623 92.1103 72.4132 91.4645 72.4132C90.9092 72.4132 90.4115 72.5818 89.9754 72.915C89.5353 73.2482 89.3173 73.7295 89.3173 74.3506C89.3173 74.8813 89.5065 75.3502 89.8891 75.7533C90.2716 76.1564 90.8763 76.5925 91.7072 77.0532C93.0935 77.8142 94.1136 78.5382 94.7718 79.2169C95.4299 79.8997 95.759 80.8047 95.759 81.9359C95.759 83.2769 95.2777 84.3505 94.3193 85.1568C93.3567 85.9712 92.0569 86.3785 90.4197 86.3785Z" fill="white"/>
</svg>
