<svg width="300" height="149" viewBox="0 0 300 149" fill="none" xmlns="http://www.w3.org/2000/svg">
<path d="M71.755 84.5749C72.2199 83.5538 72.8508 82.2836 73.6312 80.7561L76.1882 75.775C77.1014 73.9984 78.0506 72.1415 79.0357 70.2044C80.0209 68.2673 81.0032 66.3496 81.9829 64.4512C84.1967 60.0236 86.5876 55.3607 89.1557 50.4626L104.34 45C101.451 50.5788 98.6834 55.9723 96.0379 61.1803C94.9172 63.3969 93.7715 65.6716 92.5843 67.9795C91.3972 70.2875 90.2432 72.5539 89.1059 74.7372C87.9685 76.9206 86.9059 78.9878 85.9428 80.9221L83.3859 85.9032C81.8583 88.7646 80.6601 91.1334 79.7912 93.0096C78.8863 94.8859 78.2304 96.3802 77.807 97.5092C77.4529 98.2566 77.2686 99.0731 77.2674 99.9002C77.2841 100.109 77.3789 100.303 77.5329 100.445C77.6868 100.586 77.8885 100.665 78.0976 100.664C79.0025 100.747 80.1482 100.091 81.518 98.6881C82.9358 97.22 84.2402 95.6465 85.4198 93.9809C86.8976 91.9332 88.4279 89.6169 90.0108 87.0323C88.649 90.256 86.9339 93.3188 84.8968 96.1643C84.0834 97.2988 83.2018 98.3828 82.2568 99.4104C81.3173 100.435 80.2709 101.356 79.1353 102.158C78.0404 102.937 76.8378 103.552 75.5655 103.985C74.3126 104.401 72.9863 104.551 71.672 104.425C69.1814 104.201 67.521 103.428 66.8569 102.108C66.1451 100.604 65.9835 98.8968 66.4003 97.2851C66.8778 95.1313 67.6079 93.0413 68.5754 91.0587C69.6463 88.7425 70.7006 86.6006 71.755 84.5749Z" fill="#BF8F33"/>
<path d="M88.807 88.4022C89.6704 86.681 90.5172 84.9736 91.3474 83.28C92.1775 81.6196 93.0077 80.034 93.73 78.6309C94.5602 77.0204 95.3904 75.4845 96.1541 74.0317L108.906 72.2551C108.208 73.6 107.428 75.1359 106.565 76.8627C105.817 78.3155 104.904 80.034 103.941 82.0264C102.978 84.0189 101.833 86.2271 100.621 88.6679C99.4085 91.1086 98.3873 93.0679 97.6319 94.6037C97.0281 95.7714 96.4958 96.9746 96.0379 98.2067C95.782 98.791 95.6846 99.4324 95.7556 100.066C95.8636 100.415 96.1624 100.589 96.6439 100.589C97.3994 100.589 98.4787 99.8007 99.8734 98.2067C101.489 96.3445 102.981 94.3782 104.34 92.3207C105.928 89.9519 107.489 87.3811 109.022 84.6083C110.438 82.0825 111.718 79.4831 112.857 76.8211C111.053 81.1547 109.321 85.0289 107.661 88.4437C106.24 91.4685 104.594 94.3824 102.738 97.1607C101.361 99.2773 99.6083 101.123 97.5654 102.607C95.8286 103.829 93.7536 104.479 91.6296 104.466C89.1391 104.466 87.3127 104.093 86.2666 103.337C85.7523 102.973 85.3355 102.488 85.0532 101.925C84.7708 101.362 84.6316 100.738 84.6478 100.108C84.6993 98.3644 85.0972 96.6485 85.8183 95.0603C86.6319 93.1011 87.6198 90.8762 88.807 88.4022ZM107.071 88.4022C107.874 86.681 108.704 84.9736 109.562 83.28L111.811 78.6309C112.642 77.0204 113.372 75.4845 114.078 74.0317L126.829 72.2551C126.132 73.6 125.379 75.1359 124.571 76.8627C123.813 78.3127 122.966 80.034 122.031 82.0264C121.096 84.0189 120.005 86.2327 118.76 88.6679C117.523 91.092 116.535 93.1011 115.813 94.6867C115.091 96.2724 114.559 97.5343 114.236 98.4807C113.955 99.0991 113.843 99.7809 113.912 100.457C113.972 100.639 114.093 100.795 114.255 100.898C114.417 101 114.61 101.044 114.8 101.021C115.713 101.021 116.793 100.407 118.03 99.1614C119.302 97.8786 120.463 96.4899 121.5 95.0105C122.795 93.2394 124.115 91.2498 125.46 89.0415C124.359 91.7911 122.92 94.3929 121.176 96.7871C120.46 97.7823 119.678 98.7281 118.835 99.618C117.974 100.551 117.014 101.386 115.971 102.109C114.927 102.84 113.787 103.423 112.584 103.844C111.352 104.279 110.054 104.498 108.748 104.491C106.216 104.491 104.547 103.985 103.767 102.955C103.357 102.408 103.066 101.781 102.913 101.115C102.76 100.449 102.749 99.7579 102.879 99.0867C103.17 97.2812 103.715 95.5259 104.497 93.8732C105.328 91.9388 106.191 90.129 107.054 88.4022H107.071Z" fill="#BF8F33"/>
<path d="M116.9 104.549L131.919 74.0566L144.67 72.28L128.847 104.549H116.9ZM151.129 72.2551C153.896 72.2551 155.767 72.7256 156.741 73.6664C157.222 74.1103 157.599 74.6557 157.843 75.2631C158.087 75.8705 158.193 76.5247 158.152 77.1781C158.045 78.7688 157.619 80.3217 156.899 81.7441C156.118 83.4045 155.338 84.9238 154.558 86.3019C153.777 87.68 153.16 88.8561 152.706 89.8302C152.241 90.7766 152.316 91.2415 152.906 91.2415C153.988 91.1786 155.022 90.7681 155.853 90.0709C156.91 89.2848 157.897 88.4069 158.8 87.4475C159.899 86.2217 160.922 84.9297 161.863 83.5789C160.798 85.5821 159.5 87.452 157.995 89.1494C156.596 90.6285 155.008 91.9154 153.271 92.9766C151.315 94.1656 149.059 94.7705 146.771 94.7199C144.562 94.7199 143.101 94.2882 142.371 93.4249C141.999 92.975 141.731 92.4483 141.588 91.8827C141.444 91.317 141.428 90.7266 141.54 90.1539C141.775 88.667 142.237 87.225 142.91 85.8785C143.641 84.3426 144.346 82.9147 145.052 81.5947C145.629 80.545 146.128 79.4546 146.546 78.3321C146.837 77.5019 146.638 77.037 145.94 77.037C144.831 77.0985 143.788 77.5899 143.035 78.4068C142.073 79.3132 141.205 80.3145 140.445 81.3955C139.499 82.7503 138.666 84.1802 137.954 85.6709C137.533 86.2529 137.076 86.8074 136.584 87.3313L135.331 88.6596C135.087 88.9509 134.809 89.2103 134.5 89.4317C134.285 89.5645 134.226 89.523 134.334 89.3071C135.304 87.0994 136.439 84.968 137.73 82.9313C138.949 80.994 140.339 79.1688 141.881 77.477C143.199 76.0044 144.719 74.727 146.397 73.683C147.813 72.7811 149.45 72.2871 151.129 72.2551V72.2551Z" fill="#BF8F33"/>
<path d="M169.924 103.113C173.508 103.137 177.012 102.065 179.97 100.042C183.299 97.7394 186.301 94.997 188.894 91.8891C187.81 93.6372 186.522 95.2507 185.059 96.6959C183.514 98.2334 181.807 99.6 179.97 100.772C178.119 101.956 176.128 102.904 174.042 103.595C171.933 104.3 169.724 104.656 167.5 104.649C163.997 104.649 161.36 103.855 159.589 102.266C157.839 100.727 156.753 98.5701 156.558 96.2476C156.36 93.5816 156.819 90.9076 157.895 88.4604C159.104 85.5824 160.832 82.9513 162.992 80.6982C165.347 78.2059 168.138 76.166 171.228 74.6794C174.593 73.0636 178.287 72.2481 182.02 72.2967C184.71 72.2967 186.761 72.8114 188.155 73.8326C188.808 74.2732 189.361 74.846 189.779 75.5138C190.196 76.1816 190.469 76.9297 190.579 77.7095C190.748 79.5063 190.354 81.311 189.45 82.8733C188.295 84.962 186.737 86.8016 184.868 88.2861C182.489 90.1977 179.85 91.7603 177.031 92.9268C173.548 94.3659 169.882 95.3158 166.139 95.7495C165.433 95.4838 165.234 95.2099 165.533 94.9193C165.809 94.6564 166.16 94.4854 166.537 94.4295C168.148 94.2064 169.668 93.5524 170.937 92.5367C172.476 91.3735 173.869 90.0301 175.088 88.5352C176.39 86.9619 177.578 85.2973 178.641 83.554C179.615 82.0105 180.464 80.3921 181.182 78.7141C181.716 77.5307 182.095 76.2834 182.311 75.0031C182.444 74.0069 182.219 73.5088 181.63 73.5088C180.872 73.5088 179.795 74.2338 178.401 75.6839C176.806 77.4049 175.359 79.2573 174.075 81.2212C172.523 83.5016 171.106 85.8718 169.833 88.3193C168.621 90.581 167.647 92.9626 166.927 95.4257C166.333 97.1917 166.193 99.0789 166.521 100.913C166.858 102.38 167.993 103.113 169.924 103.113Z" fill="#BF8F33"/>
<path d="M189.558 88.4021C189.932 87.572 190.496 86.3599 191.219 84.849C191.941 83.338 192.804 81.661 193.709 79.8014C194.614 77.9418 195.594 75.9743 196.615 73.8739C197.636 71.7735 198.665 69.723 199.687 67.6558C202.055 62.8186 204.637 57.6244 207.432 52.0732L220.234 50.2966C217.544 55.7316 214.987 60.9258 212.563 65.8792C211.542 67.9796 210.487 70.1215 209.416 72.2965C208.345 74.4716 207.283 76.5471 206.262 78.5977C205.241 80.6482 204.302 82.4995 203.439 84.2429C202.576 85.9863 201.853 87.464 201.264 88.6429C200.019 91.0947 199.036 93.101 198.317 94.6617C197.597 96.2225 197.072 97.4871 196.739 98.4557C196.459 99.0741 196.347 99.7559 196.416 100.432C196.476 100.614 196.597 100.77 196.759 100.873C196.921 100.975 197.113 101.019 197.304 100.996C198.217 100.996 199.296 100.382 200.533 99.1364C201.803 97.8514 202.964 96.463 204.004 94.9855C205.299 93.2172 206.61 91.2248 207.964 89.0165C206.862 91.7661 205.424 94.3679 203.68 96.7621C202.964 97.7573 202.182 98.7031 201.339 99.593C200.476 100.524 199.516 101.359 198.475 102.084C197.43 102.815 196.291 103.398 195.087 103.819C193.856 104.254 192.558 104.473 191.252 104.466C188.72 104.466 187.051 103.96 186.271 102.93C185.861 102.383 185.57 101.756 185.417 101.09C185.264 100.424 185.252 99.7329 185.382 99.0617C185.674 97.2574 186.216 95.5025 186.993 93.8482C187.832 91.9387 188.695 90.1289 189.558 88.4021Z" fill="#BF8F33"/>
<path d="M207.283 88.4021C207.656 87.572 208.221 86.3599 208.943 84.849C209.665 83.338 210.529 81.661 211.434 79.8014C212.339 77.9418 213.318 75.9743 214.339 73.8739C215.361 71.7735 216.39 69.723 217.411 67.6558C219.78 62.8186 222.362 57.6244 225.157 52.0732L238 50.2966C235.31 55.7316 232.753 60.9258 230.329 65.8792C229.308 67.9796 228.253 70.1215 227.182 72.2965C226.111 74.4716 225.057 76.572 224.036 78.5977C223.015 80.6233 222.068 82.4995 221.205 84.2429C220.342 85.9863 219.619 87.464 219.03 88.6429C217.793 91.067 216.805 93.0761 216.083 94.6617C215.361 96.2474 214.829 97.5093 214.505 98.4557C214.225 99.0741 214.113 99.7559 214.182 100.432C214.242 100.614 214.363 100.77 214.525 100.873C214.687 100.975 214.879 101.019 215.07 100.996C215.983 100.996 217.062 100.382 218.299 99.1364C219.572 97.8536 220.732 96.4649 221.77 94.9855C223.065 93.2145 224.385 91.2248 225.73 89.0165C224.628 91.7661 223.189 94.3679 221.446 96.7621C220.73 97.7573 219.948 98.7031 219.105 99.593C218.244 100.526 217.283 101.361 216.24 102.084C215.196 102.815 214.057 103.398 212.853 103.819C211.622 104.254 210.324 104.473 209.018 104.466C206.486 104.466 204.817 103.96 204.037 102.93C203.624 102.385 203.33 101.758 203.174 101.092C203.019 100.426 203.004 99.734 203.132 99.0617C203.436 97.2541 203.995 95.4987 204.792 93.8482C205.622 91.9387 206.453 90.1289 207.283 88.4021Z" fill="#BF8F33"/>
<path d="M70.0697 73.4422C69.1683 73.4517 68.2696 73.3429 67.3965 73.1185C66.4701 72.8945 65.5924 72.5035 64.8063 71.9645C64.0125 71.4221 63.3398 70.7211 62.8305 69.9056C62.2764 68.9715 61.9893 67.9033 62.0003 66.8174V66.4023C61.9988 66.1795 62.0441 65.9589 62.1331 65.7547H62.0584C62.2096 64.3323 62.7886 62.9893 63.7188 61.9027C64.7006 60.8354 65.913 60.0063 67.2637 59.4785C68.9236 58.8222 70.6624 58.3868 72.4357 58.1834C74.4282 57.9261 87.9602 57.5525 90.9821 57.6355C94.004 57.7185 97.1587 57.7268 100.438 57.6355C103.292 57.624 106.142 57.4048 108.964 56.9797C110.708 56.7351 112.428 56.3379 114.103 55.7925C115.073 55.4901 115.971 54.9929 116.743 54.3314C117.14 53.9783 117.467 53.5529 117.706 53.0778C117.756 53.0778 117.78 53.0778 117.78 53.0363C117.78 52.9948 117.78 53.0363 117.847 53.0363C117.913 53.0363 118.038 53.1857 118.137 53.4846C118.244 53.8257 118.332 54.1721 118.403 54.5223C118.478 54.9042 118.544 55.3027 118.594 55.7178C118.643 56.0173 118.673 56.3195 118.685 56.6227C118.776 58.1063 118.344 59.5748 117.465 60.7736C116.547 61.9178 115.353 62.8092 113.995 63.3638C112.35 64.0487 110.622 64.5148 108.856 64.7502C106.762 65.0452 104.652 65.206 102.538 65.2317C100.009 65.2815 97.2417 65.2815 94.2364 65.2317C91.2311 65.1736 80.804 64.7834 79.675 64.7502C78.5459 64.717 77.4916 64.7087 76.5119 64.7502C74.4095 64.7597 72.31 64.9095 70.2274 65.1985C68.9 65.355 67.5906 65.6386 66.3173 66.0453C65.5836 66.2725 64.8992 66.6358 64.2999 67.1162C63.9097 67.4898 63.7105 67.7804 63.7188 68.0045C64.2031 67.4539 64.8247 67.0414 65.5203 66.809C66.2176 66.5766 66.6826 66.4272 66.9233 66.3691C67.2349 67.6143 67.7301 68.8062 68.3927 69.9056C68.8018 70.5585 69.2836 71.1629 69.829 71.7071C70.1424 72.0359 70.5034 72.3157 70.8999 72.5373C71.0153 72.575 71.1175 72.6451 71.1941 72.7393C71.2706 72.8336 71.3184 72.9479 71.3316 73.0686C71.3316 73.2928 71.1988 73.4173 70.9165 73.4505C70.6342 73.4837 70.352 73.4339 70.0697 73.4422Z" fill="#BF8F33"/>
</svg>
