<svg width="300" height="149" viewBox="0 0 300 149" fill="none" xmlns="http://www.w3.org/2000/svg">
<path d="M154.794 50.7324L212.942 68.9778C228.542 73.8858 235 82.9286 235 97.3837C235 103.023 233.381 108.494 232.274 111.057L219.241 108.376C219.685 107.09 220.918 103.578 220.918 98.6107C220.918 94.0893 218.687 90.4083 213.672 89.4586L208.497 92.1984L154.794 112.343V92.0891L193.786 80.6511V80.0964L154.794 70.709V50.7324Z" fill="#00AFCB"/>
<path d="M111.81 97.8122C105.402 97.0559 101.267 92.5008 101.267 81.3738V37H83V81.9284C83 100.981 93.7859 111.679 111.81 112.318V97.8122Z" fill="#00AFCB"/>
<path d="M126.009 50.7324V82.6597C126.009 92.9631 122 97.3837 115.257 97.9048V112.301C133.138 111.536 144.285 100.401 144.285 81.9369V50.7324H126.009Z" fill="#00AFCB"/>
</svg>
